<?plantuml 1.2026.2beta3?><svg xmlns="http://www.w3.org/2000/svg" xmlns:xlink="http://www.w3.org/1999/xlink" contentStyleType="text/css" data-diagram-type="DESCRIPTION" height="686px" preserveAspectRatio="none" style="width:745px;height:686px;background:#FFFFFF;" version="1.1" viewBox="0 0 745 686" width="745px" zoomAndPan="magnify"><defs/><g><!--cluster ???????????????? ????????? ?????--><g class="cluster" data-qualified-name="................ ......... ....." data-source-line="39" id="ent0004"><rect fill="#FFFFFF" height="668.77" rx="2.5" ry="2.5" style="stroke:#000000;stroke-width:1;" width="508" x="130.55" y="12"/><text fill="#000000" font-family="Verdana" font-size="14" font-weight="bold" lengthAdjust="spacing" textLength="294.6973" x="237.2014" y="26.9951">&#1056;&#1086;&#1073;&#1086;&#1090;&#1080;&#1079;&#1080;&#1088;&#1086;&#1074;&#1072;&#1085;&#1085;&#1099;&#1081; &#1043;&#1086;&#1083;&#1086;&#1089;&#1086;&#1074;&#1086;&#1081; &#1040;&#1075;&#1077;&#1085;&#1090;</text></g><!--cluster ???? / ????? (voice)--><g class="cluster" data-qualified-name="................ ......... .......... . ..... .voice." data-source-line="42" id="ent0005"><rect fill="#E3F2FD" height="129.6" rx="2.5" ry="2.5" style="stroke:#90CAF9;stroke-width:1;" width="331" x="154.55" y="55"/><text fill="#000000" font-family="Verdana" font-size="14" font-style="italic" lengthAdjust="spacing" textLength="54.1816" x="292.9592" y="69.9951">&#171;voice&#187;</text><text fill="#000000" font-family="Verdana" font-size="14" font-weight="bold" lengthAdjust="spacing" textLength="167.4395" x="236.3303" y="86.292">&#1042;&#1074;&#1086;&#1076; / &#1042;&#1099;&#1074;&#1086;&#1076; (voice)</text></g><!--cluster LLMMode--><g class="cluster" data-qualified-name="................ ......... ......LLMMode" data-source-line="50" id="ent0009"><rect fill="#FFF9C4" height="129.59" rx="2.5" ry="2.5" style="stroke:#FBC02D;stroke-width:1;" width="168" x="316.55" y="208.6"/><text fill="#000000" font-family="Verdana" font-size="14" font-style="italic" lengthAdjust="spacing" textLength="56.834" x="372.133" y="223.5951">&#171;mode&#187;</text><text fill="#000000" font-family="Verdana" font-size="14" font-weight="bold" lengthAdjust="spacing" textLength="74.8398" x="363.1301" y="239.892">LLMMode</text></g><!--cluster ???? ??????--><g class="cluster" data-qualified-name="................ ......... .......... ......" data-source-line="55" id="ent0011"><rect fill="#E8F5E9" height="113.3" rx="2.5" ry="2.5" style="stroke:#81C784;stroke-width:1;" width="460" x="154.55" y="362.19"/><text fill="#000000" font-family="Verdana" font-size="14" font-style="italic" lengthAdjust="spacing" textLength="47.7627" x="360.6687" y="377.1851">&#171;core&#187;</text><text fill="#000000" font-family="Verdana" font-size="14" font-weight="bold" lengthAdjust="spacing" textLength="101.4795" x="333.8103" y="393.482">&#1071;&#1076;&#1088;&#1086; &#1040;&#1075;&#1077;&#1085;&#1090;&#1072;</text></g><!--cluster ?????????? ????????????--><g class="cluster" data-qualified-name="................ ......... ................ ............" data-source-line="65" id="ent0017"><rect fill="#F5F5F5" height="120.28" rx="2.5" ry="2.5" style="stroke:#BDBDBD;stroke-width:1;" width="409" x="154.55" y="536.49"/><text fill="#000000" font-family="Verdana" font-size="14" font-style="italic" lengthAdjust="spacing" textLength="83.624" x="317.238" y="551.4851">&#171;hardware&#187;</text><text fill="#000000" font-family="Verdana" font-size="14" font-weight="bold" lengthAdjust="spacing" textLength="218.1895" x="249.9553" y="567.782">&#1040;&#1073;&#1089;&#1090;&#1088;&#1072;&#1082;&#1094;&#1080;&#1103; &#1054;&#1073;&#1086;&#1088;&#1091;&#1076;&#1086;&#1074;&#1072;&#1085;&#1080;&#1103;</text></g><!--entity ASR--><g class="entity" data-qualified-name="................ ......... .......... . ..... .voice..ASR" data-source-line="43" id="ent0006"><rect fill="#FFFFFF" height="62.5938" rx="2.5" ry="2.5" style="stroke:#000000;stroke-width:1;" width="126.3447" x="170.38" y="106"/><rect fill="#FFFFFF" height="10" style="stroke:#000000;stroke-width:1;" width="15" x="276.7247" y="111"/><rect fill="#FFFFFF" height="2" style="stroke:#000000;stroke-width:1;" width="4" x="274.7247" y="113"/><rect fill="#FFFFFF" height="2" style="stroke:#000000;stroke-width:1;" width="4" x="274.7247" y="117"/><text fill="#000000" font-family="Verdana" font-size="14" lengthAdjust="spacing" textLength="28.1914" x="185.38" y="138.9951">ASR</text><text fill="#000000" font-family="Verdana" font-size="14" lengthAdjust="spacing" textLength="86.3447" x="185.38" y="155.292">(&#1042;&#1074;&#1086;&#1076; &#1088;&#1077;&#1095;&#1080;)</text></g><!--entity TTS--><g class="entity" data-qualified-name="................ ......... .......... . ..... .voice..TTS" data-source-line="44" id="ent0007"><rect fill="#FFFFFF" height="62.5938" rx="2.5" ry="2.5" style="stroke:#000000;stroke-width:1;" width="137.3984" x="331.85" y="106"/><rect fill="#FFFFFF" height="10" style="stroke:#000000;stroke-width:1;" width="15" x="449.2484" y="111"/><rect fill="#FFFFFF" height="2" style="stroke:#000000;stroke-width:1;" width="4" x="447.2484" y="113"/><rect fill="#FFFFFF" height="2" style="stroke:#000000;stroke-width:1;" width="4" x="447.2484" y="117"/><text fill="#000000" font-family="Verdana" font-size="14" lengthAdjust="spacing" textLength="25.9902" x="346.85" y="138.9951">TTS</text><text fill="#000000" font-family="Verdana" font-size="14" lengthAdjust="spacing" textLength="97.3984" x="346.85" y="155.292">(&#1042;&#1099;&#1074;&#1086;&#1076; &#1088;&#1077;&#1095;&#1080;)</text></g><!--entity Policy--><g class="entity" data-qualified-name="................ ......... ......LLMMode.Policy" data-source-line="51" id="ent0010"><rect fill="#FFFFFF" height="62.5938" rx="2.5" ry="2.5" style="stroke:#000000;stroke-width:1;" width="135.8945" x="332.6" y="259.6"/><rect fill="#FFFFFF" height="10" style="stroke:#000000;stroke-width:1;" width="15" x="448.4945" y="264.6"/><rect fill="#FFFFFF" height="2" style="stroke:#000000;stroke-width:1;" width="4" x="446.4945" y="266.6"/><rect fill="#FFFFFF" height="2" style="stroke:#000000;stroke-width:1;" width="4" x="446.4945" y="270.6"/><text fill="#000000" font-family="Verdana" font-size="14" lengthAdjust="spacing" textLength="95.8945" x="347.6" y="292.5951">Orchestration</text><text fill="#000000" font-family="Verdana" font-size="14" lengthAdjust="spacing" textLength="49.9365" x="347.6" y="308.892">/ Policy</text></g><!--entity Executor--><g class="entity" data-qualified-name="................ ......... .......... .......Executor" data-source-line="56" id="ent0012"><rect fill="#FFFFFF" height="46.2969" rx="2.5" ry="2.5" style="stroke:#000000;stroke-width:1;" width="130.7881" x="323.16" y="413.19"/><rect fill="#FFFFFF" height="10" style="stroke:#000000;stroke-width:1;" width="15" x="433.9481" y="418.19"/><rect fill="#FFFFFF" height="2" style="stroke:#000000;stroke-width:1;" width="4" x="431.9481" y="420.19"/><rect fill="#FFFFFF" height="2" style="stroke:#000000;stroke-width:1;" width="4" x="431.9481" y="424.19"/><text fill="#000000" font-family="Verdana" font-size="14" lengthAdjust="spacing" textLength="90.7881" x="338.16" y="446.1851">SkillExecutor</text></g><!--entity Tools--><g class="entity" data-qualified-name="................ ......... .......... .......Tools" data-source-line="57" id="ent0013"><rect fill="#FFFFFF" height="46.2969" rx="2.5" ry="2.5" style="stroke:#000000;stroke-width:1;" width="118.1006" x="170.5" y="413.19"/><rect fill="#FFFFFF" height="10" style="stroke:#000000;stroke-width:1;" width="15" x="268.6006" y="418.19"/><rect fill="#FFFFFF" height="2" style="stroke:#000000;stroke-width:1;" width="4" x="266.6006" y="420.19"/><rect fill="#FFFFFF" height="2" style="stroke:#000000;stroke-width:1;" width="4" x="266.6006" y="424.19"/><text fill="#000000" font-family="Verdana" font-size="14" lengthAdjust="spacing" textLength="78.1006" x="185.5" y="446.1851">RobotTools</text></g><!--entity Agent--><g class="entity" data-qualified-name="................ ......... .......... .......Agent" data-source-line="58" id="ent0014"><rect fill="#FFFFFF" height="46.2969" rx="2.5" ry="2.5" style="stroke:#000000;stroke-width:1;" width="109.1182" x="488.99" y="413.19"/><rect fill="#FFFFFF" height="10" style="stroke:#000000;stroke-width:1;" width="15" x="578.1082" y="418.19"/><rect fill="#FFFFFF" height="2" style="stroke:#000000;stroke-width:1;" width="4" x="576.1082" y="420.19"/><rect fill="#FFFFFF" height="2" style="stroke:#000000;stroke-width:1;" width="4" x="576.1082" y="424.19"/><text fill="#000000" font-family="Verdana" font-size="14" lengthAdjust="spacing" textLength="69.1182" x="503.99" y="446.1851">LLMAgent</text></g><!--entity IDriver--><g class="entity" data-qualified-name="................ ......... ................ .............IDriver" data-source-line="66" id="ent0018"><rect fill="#FFFFFF" height="53.2813" rx="2.5" ry="2.5" style="stroke:#000000;stroke-width:1;" width="103.1738" x="170.96" y="587.49"/><rect fill="#FFFFFF" height="10" style="stroke:#000000;stroke-width:1;" width="15" x="254.1338" y="592.49"/><rect fill="#FFFFFF" height="2" style="stroke:#000000;stroke-width:1;" width="4" x="252.1338" y="594.49"/><rect fill="#FFFFFF" height="2" style="stroke:#000000;stroke-width:1;" width="4" x="252.1338" y="598.49"/><text fill="#000000" font-family="Verdana" font-size="10" font-style="italic" lengthAdjust="spacing" textLength="59.7314" x="187.6812" y="616.7722">&#171;hardware&#187;</text><text fill="#000000" font-family="Verdana" font-size="10" lengthAdjust="spacing" textLength="63.1738" x="185.96" y="628.4129">IRobotDriver</text></g><!--entity IKinematics--><g class="entity" data-qualified-name="................ ......... ................ .............IKinematics" data-source-line="67" id="ent0019"><rect fill="#FFFFFF" height="53.2813" rx="2.5" ry="2.5" style="stroke:#000000;stroke-width:1;" width="101.7314" x="308.68" y="587.49"/><rect fill="#FFFFFF" height="10" style="stroke:#000000;stroke-width:1;" width="15" x="390.4114" y="592.49"/><rect fill="#FFFFFF" height="2" style="stroke:#000000;stroke-width:1;" width="4" x="388.4114" y="594.49"/><rect fill="#FFFFFF" height="2" style="stroke:#000000;stroke-width:1;" width="4" x="388.4114" y="598.49"/><text fill="#000000" font-family="Verdana" font-size="10" font-style="italic" lengthAdjust="spacing" textLength="59.7314" x="324.68" y="616.7722">&#171;hardware&#187;</text><text fill="#000000" font-family="Verdana" font-size="10" lengthAdjust="spacing" textLength="58.0518" x="325.5198" y="628.4129">IKinematics</text></g><!--entity IServo--><g class="entity" data-qualified-name="................ ......... ................ .............IServo" data-source-line="68" id="ent0020"><rect fill="#FFFFFF" height="53.2813" rx="2.5" ry="2.5" style="stroke:#000000;stroke-width:1;" width="101.7314" x="445.68" y="587.49"/><rect fill="#FFFFFF" height="10" style="stroke:#000000;stroke-width:1;" width="15" x="527.4114" y="592.49"/><rect fill="#FFFFFF" height="2" style="stroke:#000000;stroke-width:1;" width="4" x="525.4114" y="594.49"/><rect fill="#FFFFFF" height="2" style="stroke:#000000;stroke-width:1;" width="4" x="525.4114" y="598.49"/><text fill="#000000" font-family="Verdana" font-size="10" font-style="italic" lengthAdjust="spacing" textLength="59.7314" x="461.68" y="616.7722">&#171;hardware&#187;</text><text fill="#000000" font-family="Verdana" font-size="10" lengthAdjust="spacing" textLength="31.5967" x="475.7474" y="628.4129">IServo</text></g><!--entity User--><g class="entity" data-qualified-name="User" data-source-line="35" id="ent0002"><ellipse cx="62.5498" cy="115.15" fill="#FFFFFF" rx="16" ry="16" style="stroke:#000000;stroke-width:1;"/><path d="M62.5498,135.15 C66.5498,135.15 69.5498,135.15 73.5498,131.15 C81.5498,131.15 89.5498,139.15 89.5498,147.15 L89.5498,151.15 C89.5498,155.15 85.5498,159.15 81.5498,159.15 L43.5498,159.15 C39.5498,159.15 35.5498,155.15 35.5498,151.15 L35.5498,147.15 C35.5498,139.15 43.5498,131.15 51.5498,131.15 C55.5498,135.15 58.5498,135.15 62.5498,135.15" fill="#FFFFFF" style="stroke:#000000;stroke-width:1;"/><text fill="#000000" font-family="Verdana" font-size="14" lengthAdjust="spacing" textLength="103.0996" x="11" y="173.1451">&#1055;&#1086;&#1083;&#1100;&#1079;&#1086;&#1074;&#1072;&#1090;&#1077;&#1083;&#1100;</text></g><!--entity LLM_API--><g class="entity" data-qualified-name="LLM_API" data-source-line="36" id="ent0003"><path d="M654.41,423.69 C654.41,413.69 691.5487,413.69 691.5487,413.69 C691.5487,413.69 728.6873,413.69 728.6873,423.69 L728.6873,448.9869 C728.6873,458.9869 691.5487,458.9869 691.5487,458.9869 C691.5487,458.9869 654.41,458.9869 654.41,448.9869 L654.41,423.69" fill="#FFFFFF" style="stroke:#000000;stroke-width:1;"/><path d="M654.41,423.69 C654.41,433.69 691.5487,433.69 691.5487,433.69 C691.5487,433.69 728.6873,433.69 728.6873,423.69" fill="none" style="stroke:#000000;stroke-width:1;"/><text fill="#000000" font-family="Verdana" font-size="14" lengthAdjust="spacing" textLength="54.2773" x="664.41" y="450.6851">LLM API</text></g><!--link ASR to TTS--><g class="link" data-entity-1="ent0006" data-entity-2="ent0007" data-link-type="dependency" data-source-line="46" id="lnk8"><path d="M297.16,137.77 C308.41,137.77 314.16,137.77 325.55,137.77" fill="none" id="ASR-to-TTS" style="stroke:#000000;stroke-width:1;"/><polygon fill="#000000" points="331.55,137.77,322.55,133.77,326.55,137.77,322.55,141.77,331.55,137.77" style="stroke:#000000;stroke-width:1;"/><text fill="#000000" font-family="Verdana" font-size="13" lengthAdjust="spacing" textLength="38.1431" x="295.36" y="150.8369">&#1090;&#1077;&#1082;&#1089;&#1090;</text></g><!--link Tools to Executor--><g class="link" data-entity-1="ent0013" data-entity-2="ent0012" data-link-type="dependency" data-source-line="60" id="lnk15"><path d="M288.76,428.77 C299.88,428.77 305.57,428.77 316.88,428.77" fill="none" id="Tools-to-Executor" style="stroke:#000000;stroke-width:1;"/><polygon fill="#000000" points="322.88,428.77,313.88,424.77,317.88,428.77,313.88,432.77,322.88,428.77" style="stroke:#000000;stroke-width:1;"/></g><!--link Executor to Agent--><g class="link" data-entity-1="ent0012" data-entity-2="ent0014" data-link-type="dependency" data-source-line="61" id="lnk16"><path d="M454.28,444.77 C465.84,444.77 471.74,444.77 482.95,444.77" fill="none" id="Executor-to-Agent" style="stroke:#000000;stroke-width:1;"/><polygon fill="#000000" points="488.95,444.77,479.95,440.77,483.95,444.77,479.95,448.77,488.95,444.77" style="stroke:#000000;stroke-width:1;"/></g><!--link IDriver to IKinematics--><g class="link" data-entity-1="ent0018" data-entity-2="ent0019" data-link-type="dependency" data-source-line="70" id="lnk21"><path d="M274.34,614.77 C285.56,614.77 291.41,614.77 302.59,614.77" fill="none" id="IDriver-to-IKinematics" style="stroke:#000000;stroke-width:1;"/><polygon fill="#000000" points="308.59,614.77,299.59,610.77,303.59,614.77,299.59,618.77,308.59,614.77" style="stroke:#000000;stroke-width:1;"/></g><!--link IKinematics to IServo--><g class="link" data-entity-1="ent0019" data-entity-2="ent0020" data-link-type="dependency" data-source-line="71" id="lnk22"><path d="M410.56,614.77 C421.97,614.77 428.08,614.77 439.49,614.77" fill="none" id="IKinematics-to-IServo" style="stroke:#000000;stroke-width:1;"/><polygon fill="#000000" points="445.49,614.77,436.49,610.77,440.49,614.77,436.49,618.77,445.49,614.77" style="stroke:#000000;stroke-width:1;"/></g><!--link User to ASR--><g class="link" data-entity-1="ent0002" data-entity-2="ent0006" data-link-type="dependency" data-source-line="76" id="lnk23"><path d="M114.32,137.77 C131.92,137.77 145.78,137.77 164.18,137.77" fill="none" id="User-to-ASR" style="stroke:#000000;stroke-width:1;"/><polygon fill="#000000" points="170.18,137.77,161.18,133.77,165.18,137.77,161.18,141.77,170.18,137.77" style="stroke:#000000;stroke-width:1;"/><text fill="#000000" font-family="Verdana" font-size="13" lengthAdjust="spacing" textLength="54.6724" x="115.25" y="150.8369">&#1075;&#1086;&#1074;&#1086;&#1088;&#1080;&#1090;</text></g><!--reverse link User to TTS--><g class="link" data-entity-1="ent0002" data-entity-2="ent0007" data-link-type="dependency" data-source-line="77" id="lnk25"><path d="M120.27,172.77 C209.73,172.77 377.9,172.77 377.9,172.77 C377.9,172.77 377.9,171.31 377.9,168.97" fill="none" id="User-backto-TTS" style="stroke:#000000;stroke-width:1;"/><polygon fill="#000000" points="114.27,172.77,123.27,176.77,119.27,172.77,123.27,168.77,114.27,172.77" style="stroke:#000000;stroke-width:1;"/><text fill="#000000" font-family="Verdana" font-size="13" lengthAdjust="spacing" textLength="77.5493" x="169.98" y="185.8369">&#1086;&#1079;&#1074;&#1091;&#1095;&#1080;&#1074;&#1072;&#1077;&#1090;</text></g><!--link ASR to Policy--><g class="link" data-entity-1="ent0006" data-entity-2="ent0010" data-link-type="dependency" data-source-line="80" id="lnk26"><path d="M292.66,168.93 C292.66,214.12 292.66,291.77 292.66,291.77 C292.66,291.77 304.81,291.77 326.22,291.77" fill="none" id="ASR-to-Policy" style="stroke:#000000;stroke-width:1;"/><polygon fill="#000000" points="332.22,291.77,323.22,287.77,327.22,291.77,323.22,295.77,332.22,291.77" style="stroke:#000000;stroke-width:1;"/><text fill="#000000" font-family="Verdana" font-size="13" lengthAdjust="spacing" textLength="38.1431" x="253.66" y="246.1969">&#1090;&#1077;&#1082;&#1089;&#1090;</text></g><!--link Policy to TTS--><g class="link" data-entity-1="ent0010" data-entity-2="ent0007" data-link-type="dependency" data-source-line="81" id="lnk27"><path d="M423.2,259.44 C423.2,233.03 423.2,201.45 423.2,174.98" fill="none" id="Policy-to-TTS" style="stroke:#000000;stroke-width:1;"/><polygon fill="#000000" points="423.2,168.98,419.2,177.98,423.2,173.98,427.2,177.98,423.2,168.98" style="stroke:#000000;stroke-width:1;"/><text fill="#000000" font-family="Verdana" font-size="13" lengthAdjust="spacing" textLength="38.1431" x="424.2" y="210.2769">&#1090;&#1077;&#1082;&#1089;&#1090;</text></g><!--link Policy to Agent--><g class="link" data-entity-1="ent0010" data-entity-2="ent0014" data-link-type="dependency" data-source-line="84" id="lnk28"><path d="M461.22,322.53 C461.22,363.23 461.22,428.77 461.22,428.77 C461.22,428.77 467.53,428.77 482.63,428.77" fill="none" id="Policy-to-Agent" style="stroke:#000000;stroke-width:1;"/><polygon fill="#000000" points="488.63,428.77,479.63,424.77,483.63,428.77,479.63,432.77,488.63,428.77" style="stroke:#000000;stroke-width:1;"/><text fill="#000000" font-family="Verdana" font-size="13" lengthAdjust="spacing" textLength="71.7729" x="462.22" y="385.4269">&#1091;&#1087;&#1088;&#1072;&#1074;&#1083;&#1103;&#1077;&#1090;</text></g><!--link Agent to LLM_API--><g class="link" data-entity-1="ent0014" data-entity-2="ent0003" data-link-type="dependency" data-source-line="87" id="lnk29"><path d="M598.24,436.77 C616.85,436.77 631.21,436.77 648.15,436.77" fill="none" id="Agent-to-LLM_API" style="stroke:#000000;stroke-width:1;"/><polygon fill="#000000" points="654.15,436.77,645.15,432.77,649.15,436.77,645.15,440.77,654.15,436.77" style="stroke:#000000;stroke-width:1;"/><text fill="#000000" font-family="Verdana" font-size="13" lengthAdjust="spacing" textLength="33.4966" x="618.44" y="449.8369">HTTP</text></g><!--link Tools to IDriver--><g class="link" data-entity-1="ent0013" data-entity-2="ent0018" data-link-type="dependency" data-source-line="90" id="lnk30"><path d="M222.55,459.95 C222.55,492.91 222.55,546.58 222.55,581.22" fill="none" id="Tools-to-IDriver" style="stroke:#000000;stroke-width:1;"/><polygon fill="#000000" points="222.55,587.22,226.55,578.22,222.55,582.22,218.55,578.22,222.55,587.22" style="stroke:#000000;stroke-width:1;"/></g><!--link Tools to IKinematics--><g class="link" data-entity-1="ent0013" data-entity-2="ent0019" data-link-type="dependency" data-source-line="91" id="lnk31"><path d="M289.07,444.77 C304.03,444.77 315.92,444.77 315.92,444.77 C315.92,444.77 315.92,533.54 315.92,581.29" fill="none" id="Tools-to-IKinematics" style="stroke:#000000;stroke-width:1;"/><polygon fill="#000000" points="315.92,587.29,319.92,578.29,315.92,582.29,311.92,578.29,315.92,587.29" style="stroke:#000000;stroke-width:1;"/></g><!--link Tools to IServo--><g class="link" data-entity-1="ent0013" data-entity-2="ent0020" data-link-type="dependency" data-source-line="92" id="lnk32"><path d="M281.37,459.77 C281.37,485.67 281.37,523.77 281.37,523.77 C281.37,523.77 449.81,523.77 449.81,523.77 C449.81,523.77 449.81,554.4 449.81,581.02" fill="none" id="Tools-to-IServo" style="stroke:#000000;stroke-width:1;"/><polygon fill="#000000" points="449.81,587.02,453.81,578.02,449.81,582.02,445.81,578.02,449.81,587.02" style="stroke:#000000;stroke-width:1;"/></g><?plantuml-src XLNTJXD15BxVfpZM2-2YuKU8b219QTb0X4XezKQCMRP3ks6xqymk81eIX0Grce1uvmN-N7XhgJHMiVKLPb_19_7Cp7P_MgeqeJDppldEcUzyPth3gv0gWPfjM8wckLkMKpEOKGMJLclK8OvNyFPi0jjLUo9cDKoFCcKnTebBgoHch1dcbb4coio8wSLijkKGRwz6W3AlGcC6jsAKwAxbb67Ji5sYQKDmH_m1_y8RlEaVyZhup_aLx_XlUKFP-dFEpkvGooHpS_1C0vZ7mpAZsqufHstAuER2BNr2pmiBPIN2WjFCM2whPxHzxJgyAYqDXDDrFPERx8NJvtDZ4_a1S2PbWwkRrgSMChrmq-EvszEJ0-0g1Ylj6eCXzIdnwOMSpujF4ZBiTn-eJb44rbC2usCY9EpB6MzZNrxY_nPlOc_y8_yLRZguEkIje4DIA93Y7tY7N_bl-7VyRl0wUZJ5FWM62_TTmhIIuHaRXaiWjRoy0jdL9Md2zMDSnxAUemZQ4gIDC2T24osPiSb_eKHKre0VpFiHNI-m9gm8SxVy0vKVWzl-Q_u3-3jHc2XQ6ZhYw9H_GxIsVvZ2-oC1Gv1Ef-6149POuKc4VoQ3Bc4K-K10jHcM8Xn9GLAE00-pXRLrPpYCmdAQ_WlU6daaBej6vLKi5gHN29ZqGxCc7J40qimgLxpqd3Y56P14_1I4eCT-LFqAohYtU2HN78ioOoh7_FUOMI6knmpFeiwwCmghrBRCFPbSBPFWEHGr3FDF_3FoVSxVyzEHFgA-yaj1VenTNXUPOmE1cGjRbcqlF27cDif6vkjkb7sDRb2lIAdjAYR4IbdmCjaoobSnALQA8-aIiPI0wsuYimfCN6unc8R_NV2KNmZQyP9rRC0nQkq4rIh5T-0VySjGU6WG5--PCeWc459ByfvvPkqG9kTWIQqJONr1T_5jhMBFJ5V5HFj_nnK8sw4gH2wJtjAzcpyaAWQk76B98YS99-cCFnm3te9WTiLh46i8Idm6K39oEf7S5YfRI3rjaqtX8DtHeuDm3No2S4eap_YB4QLKi_ld-4pDWKeafmT_Snn4KQfEpazmrdNfcwyGNM8AS3a72hmdMEfAX1_ntr8X3RpnIR986IrWyC7hbYZ3qW4RY1EyXuYqM2okNXCRgbK11EhlbX6qiUyurinUaspXNm00?></g></svg>