<?plantuml 1.2026.2beta3?><svg xmlns="http://www.w3.org/2000/svg" xmlns:xlink="http://www.w3.org/1999/xlink" contentStyleType="text/css" data-diagram-type="DESCRIPTION" height="633px" preserveAspectRatio="none" style="width:745px;height:633px;background:#FFFFFF;" version="1.1" viewBox="0 0 745 633" width="745px" zoomAndPan="magnify"><defs/><g><!--cluster ???????????????? ????????? ?????--><g class="cluster" data-qualified-name="................ ......... ....." data-source-line="39" id="ent0004"><rect fill="#FFFFFF" height="615.47" rx="2.5" ry="2.5" style="stroke:#000000;stroke-width:1;" width="508" x="130.55" y="12"/><text fill="#000000" font-family="Verdana" font-size="14" font-weight="bold" lengthAdjust="spacing" textLength="294.6973" x="237.2014" y="26.9951">&#1056;&#1086;&#1073;&#1086;&#1090;&#1080;&#1079;&#1080;&#1088;&#1086;&#1074;&#1072;&#1085;&#1085;&#1099;&#1081; &#1043;&#1086;&#1083;&#1086;&#1089;&#1086;&#1074;&#1086;&#1081; &#1040;&#1075;&#1077;&#1085;&#1090;</text></g><!--cluster ???? / ????? (voice)--><g class="cluster" data-qualified-name="................ ......... .......... . ..... .voice." data-source-line="42" id="ent0005"><rect fill="#E3F2FD" height="129.6" rx="2.5" ry="2.5" style="stroke:#90CAF9;stroke-width:1;" width="331" x="154.55" y="55"/><text fill="#000000" font-family="Verdana" font-size="14" font-style="italic" lengthAdjust="spacing" textLength="54.1816" x="292.9592" y="69.9951">&#171;voice&#187;</text><text fill="#000000" font-family="Verdana" font-size="14" font-weight="bold" lengthAdjust="spacing" textLength="167.4395" x="236.3303" y="86.292">&#1042;&#1074;&#1086;&#1076; / &#1042;&#1099;&#1074;&#1086;&#1076; (voice)</text></g><!--cluster ???????????--><g class="cluster" data-qualified-name="................ ......... ................." data-source-line="50" id="ent0009"><rect fill="#FFF9C4" height="113.29" rx="2.5" ry="2.5" style="stroke:#FBC02D;stroke-width:1;" width="138" x="331.55" y="208.6"/><text fill="#000000" font-family="Verdana" font-size="14" font-style="italic" lengthAdjust="spacing" textLength="56.834" x="372.133" y="223.5951">&#171;mode&#187;</text><text fill="#000000" font-family="Verdana" font-size="14" font-weight="bold" lengthAdjust="spacing" textLength="105.9775" x="347.5612" y="239.892">&#1054;&#1088;&#1082;&#1077;&#1089;&#1090;&#1088;&#1072;&#1094;&#1080;&#1103;</text></g><!--cluster ???? ??????--><g class="cluster" data-qualified-name="................ ......... .......... ......" data-source-line="55" id="ent0011"><rect fill="#E8F5E9" height="113.3" rx="2.5" ry="2.5" style="stroke:#81C784;stroke-width:1;" width="460" x="154.55" y="345.89"/><text fill="#000000" font-family="Verdana" font-size="14" font-style="italic" lengthAdjust="spacing" textLength="47.7627" x="360.6687" y="360.8851">&#171;core&#187;</text><text fill="#000000" font-family="Verdana" font-size="14" font-weight="bold" lengthAdjust="spacing" textLength="101.4795" x="333.8103" y="377.182">&#1071;&#1076;&#1088;&#1086; &#1040;&#1075;&#1077;&#1085;&#1090;&#1072;</text></g><!--cluster ?????????? ????????????--><g class="cluster" data-qualified-name="................ ......... ................ ............" data-source-line="65" id="ent0017"><rect fill="#F5F5F5" height="120.28" rx="2.5" ry="2.5" style="stroke:#BDBDBD;stroke-width:1;" width="409" x="161.55" y="483.19"/><text fill="#000000" font-family="Verdana" font-size="14" font-style="italic" lengthAdjust="spacing" textLength="83.624" x="324.238" y="498.1851">&#171;hardware&#187;</text><text fill="#000000" font-family="Verdana" font-size="14" font-weight="bold" lengthAdjust="spacing" textLength="218.1895" x="256.9553" y="514.482">&#1040;&#1073;&#1089;&#1090;&#1088;&#1072;&#1082;&#1094;&#1080;&#1103; &#1054;&#1073;&#1086;&#1088;&#1091;&#1076;&#1086;&#1074;&#1072;&#1085;&#1080;&#1103;</text></g><!--entity ASR--><g class="entity" data-qualified-name="................ ......... .......... . ..... .voice..ASR" data-source-line="43" id="ent0006"><rect fill="#FFFFFF" height="62.5938" rx="2.5" ry="2.5" style="stroke:#000000;stroke-width:1;" width="126.3447" x="170.38" y="106"/><rect fill="#FFFFFF" height="10" style="stroke:#000000;stroke-width:1;" width="15" x="276.7247" y="111"/><rect fill="#FFFFFF" height="2" style="stroke:#000000;stroke-width:1;" width="4" x="274.7247" y="113"/><rect fill="#FFFFFF" height="2" style="stroke:#000000;stroke-width:1;" width="4" x="274.7247" y="117"/><text fill="#000000" font-family="Verdana" font-size="14" lengthAdjust="spacing" textLength="28.1914" x="185.38" y="138.9951">ASR</text><text fill="#000000" font-family="Verdana" font-size="14" lengthAdjust="spacing" textLength="86.3447" x="185.38" y="155.292">(&#1042;&#1074;&#1086;&#1076; &#1088;&#1077;&#1095;&#1080;)</text></g><!--entity TTS--><g class="entity" data-qualified-name="................ ......... .......... . ..... .voice..TTS" data-source-line="44" id="ent0007"><rect fill="#FFFFFF" height="62.5938" rx="2.5" ry="2.5" style="stroke:#000000;stroke-width:1;" width="137.3984" x="331.85" y="106"/><rect fill="#FFFFFF" height="10" style="stroke:#000000;stroke-width:1;" width="15" x="449.2484" y="111"/><rect fill="#FFFFFF" height="2" style="stroke:#000000;stroke-width:1;" width="4" x="447.2484" y="113"/><rect fill="#FFFFFF" height="2" style="stroke:#000000;stroke-width:1;" width="4" x="447.2484" y="117"/><text fill="#000000" font-family="Verdana" font-size="14" lengthAdjust="spacing" textLength="25.9902" x="346.85" y="138.9951">TTS</text><text fill="#000000" font-family="Verdana" font-size="14" lengthAdjust="spacing" textLength="97.3984" x="346.85" y="155.292">(&#1042;&#1099;&#1074;&#1086;&#1076; &#1088;&#1077;&#1095;&#1080;)</text></g><!--entity Policy--><g class="entity" data-qualified-name="................ ......... ..................Policy" data-source-line="51" id="ent0010"><rect fill="#FFFFFF" height="46.2969" rx="2.5" ry="2.5" style="stroke:#000000;stroke-width:1;" width="105.8232" x="347.64" y="259.6"/><rect fill="#FFFFFF" height="10" style="stroke:#000000;stroke-width:1;" width="15" x="433.4632" y="264.6"/><rect fill="#FFFFFF" height="2" style="stroke:#000000;stroke-width:1;" width="4" x="431.4632" y="266.6"/><rect fill="#FFFFFF" height="2" style="stroke:#000000;stroke-width:1;" width="4" x="431.4632" y="270.6"/><text fill="#000000" font-family="Verdana" font-size="14" lengthAdjust="spacing" textLength="65.8232" x="362.64" y="292.5951">LLMMode</text></g><!--entity Executor--><g class="entity" data-qualified-name="................ ......... .......... .......Executor" data-source-line="56" id="ent0012"><rect fill="#FFFFFF" height="46.2969" rx="2.5" ry="2.5" style="stroke:#000000;stroke-width:1;" width="130.7881" x="323.16" y="396.89"/><rect fill="#FFFFFF" height="10" style="stroke:#000000;stroke-width:1;" width="15" x="433.9481" y="401.89"/><rect fill="#FFFFFF" height="2" style="stroke:#000000;stroke-width:1;" width="4" x="431.9481" y="403.89"/><rect fill="#FFFFFF" height="2" style="stroke:#000000;stroke-width:1;" width="4" x="431.9481" y="407.89"/><text fill="#000000" font-family="Verdana" font-size="14" lengthAdjust="spacing" textLength="90.7881" x="338.16" y="429.8851">SkillExecutor</text></g><!--entity Tools--><g class="entity" data-qualified-name="................ ......... .......... .......Tools" data-source-line="57" id="ent0013"><rect fill="#FFFFFF" height="46.2969" rx="2.5" ry="2.5" style="stroke:#000000;stroke-width:1;" width="118.1006" x="170.5" y="396.89"/><rect fill="#FFFFFF" height="10" style="stroke:#000000;stroke-width:1;" width="15" x="268.6006" y="401.89"/><rect fill="#FFFFFF" height="2" style="stroke:#000000;stroke-width:1;" width="4" x="266.6006" y="403.89"/><rect fill="#FFFFFF" height="2" style="stroke:#000000;stroke-width:1;" width="4" x="266.6006" y="407.89"/><text fill="#000000" font-family="Verdana" font-size="14" lengthAdjust="spacing" textLength="78.1006" x="185.5" y="429.8851">RobotTools</text></g><!--entity Agent--><g class="entity" data-qualified-name="................ ......... .......... .......Agent" data-source-line="58" id="ent0014"><rect fill="#FFFFFF" height="46.2969" rx="2.5" ry="2.5" style="stroke:#000000;stroke-width:1;" width="109.1182" x="488.99" y="396.89"/><rect fill="#FFFFFF" height="10" style="stroke:#000000;stroke-width:1;" width="15" x="578.1082" y="401.89"/><rect fill="#FFFFFF" height="2" style="stroke:#000000;stroke-width:1;" width="4" x="576.1082" y="403.89"/><rect fill="#FFFFFF" height="2" style="stroke:#000000;stroke-width:1;" width="4" x="576.1082" y="407.89"/><text fill="#000000" font-family="Verdana" font-size="14" lengthAdjust="spacing" textLength="69.1182" x="503.99" y="429.8851">LLMAgent</text></g><!--entity IDriver--><g class="entity" data-qualified-name="................ ......... ................ .............IDriver" data-source-line="66" id="ent0018"><rect fill="#FFFFFF" height="53.2813" rx="2.5" ry="2.5" style="stroke:#000000;stroke-width:1;" width="103.1738" x="177.96" y="534.19"/><rect fill="#FFFFFF" height="10" style="stroke:#000000;stroke-width:1;" width="15" x="261.1338" y="539.19"/><rect fill="#FFFFFF" height="2" style="stroke:#000000;stroke-width:1;" width="4" x="259.1338" y="541.19"/><rect fill="#FFFFFF" height="2" style="stroke:#000000;stroke-width:1;" width="4" x="259.1338" y="545.19"/><text fill="#000000" font-family="Verdana" font-size="10" font-style="italic" lengthAdjust="spacing" textLength="59.7314" x="194.6812" y="563.4722">&#171;hardware&#187;</text><text fill="#000000" font-family="Verdana" font-size="10" lengthAdjust="spacing" textLength="63.1738" x="192.96" y="575.1129">IRobotDriver</text></g><!--entity IKinematics--><g class="entity" data-qualified-name="................ ......... ................ .............IKinematics" data-source-line="67" id="ent0019"><rect fill="#FFFFFF" height="53.2813" rx="2.5" ry="2.5" style="stroke:#000000;stroke-width:1;" width="101.7314" x="315.68" y="534.19"/><rect fill="#FFFFFF" height="10" style="stroke:#000000;stroke-width:1;" width="15" x="397.4114" y="539.19"/><rect fill="#FFFFFF" height="2" style="stroke:#000000;stroke-width:1;" width="4" x="395.4114" y="541.19"/><rect fill="#FFFFFF" height="2" style="stroke:#000000;stroke-width:1;" width="4" x="395.4114" y="545.19"/><text fill="#000000" font-family="Verdana" font-size="10" font-style="italic" lengthAdjust="spacing" textLength="59.7314" x="331.68" y="563.4722">&#171;hardware&#187;</text><text fill="#000000" font-family="Verdana" font-size="10" lengthAdjust="spacing" textLength="58.0518" x="332.5198" y="575.1129">IKinematics</text></g><!--entity IServo--><g class="entity" data-qualified-name="................ ......... ................ .............IServo" data-source-line="68" id="ent0020"><rect fill="#FFFFFF" height="53.2813" rx="2.5" ry="2.5" style="stroke:#000000;stroke-width:1;" width="101.7314" x="452.68" y="534.19"/><rect fill="#FFFFFF" height="10" style="stroke:#000000;stroke-width:1;" width="15" x="534.4114" y="539.19"/><rect fill="#FFFFFF" height="2" style="stroke:#000000;stroke-width:1;" width="4" x="532.4114" y="541.19"/><rect fill="#FFFFFF" height="2" style="stroke:#000000;stroke-width:1;" width="4" x="532.4114" y="545.19"/><text fill="#000000" font-family="Verdana" font-size="10" font-style="italic" lengthAdjust="spacing" textLength="59.7314" x="468.68" y="563.4722">&#171;hardware&#187;</text><text fill="#000000" font-family="Verdana" font-size="10" lengthAdjust="spacing" textLength="31.5967" x="482.7474" y="575.1129">IServo</text></g><!--entity User--><g class="entity" data-qualified-name="User" data-source-line="35" id="ent0002"><ellipse cx="62.5498" cy="115.15" fill="#FFFFFF" rx="16" ry="16" style="stroke:#000000;stroke-width:1;"/><path d="M62.5498,135.15 C66.5498,135.15 69.5498,135.15 73.5498,131.15 C81.5498,131.15 89.5498,139.15 89.5498,147.15 L89.5498,151.15 C89.5498,155.15 85.5498,159.15 81.5498,159.15 L43.5498,159.15 C39.5498,159.15 35.5498,155.15 35.5498,151.15 L35.5498,147.15 C35.5498,139.15 43.5498,131.15 51.5498,131.15 C55.5498,135.15 58.5498,135.15 62.5498,135.15" fill="#FFFFFF" style="stroke:#000000;stroke-width:1;"/><text fill="#000000" font-family="Verdana" font-size="14" lengthAdjust="spacing" textLength="103.0996" x="11" y="173.1451">&#1055;&#1086;&#1083;&#1100;&#1079;&#1086;&#1074;&#1072;&#1090;&#1077;&#1083;&#1100;</text></g><!--entity LLM_API--><g class="entity" data-qualified-name="LLM_API" data-source-line="36" id="ent0003"><path d="M654.41,407.39 C654.41,397.39 691.5487,397.39 691.5487,397.39 C691.5487,397.39 728.6873,397.39 728.6873,407.39 L728.6873,432.6869 C728.6873,442.6869 691.5487,442.6869 691.5487,442.6869 C691.5487,442.6869 654.41,442.6869 654.41,432.6869 L654.41,407.39" fill="#FFFFFF" style="stroke:#000000;stroke-width:1;"/><path d="M654.41,407.39 C654.41,417.39 691.5487,417.39 691.5487,417.39 C691.5487,417.39 728.6873,417.39 728.6873,407.39" fill="none" style="stroke:#000000;stroke-width:1;"/><text fill="#000000" font-family="Verdana" font-size="14" lengthAdjust="spacing" textLength="54.2773" x="664.41" y="434.3851">LLM API</text></g><!--link ASR to TTS--><g class="link" data-entity-1="ent0006" data-entity-2="ent0007" data-link-type="dependency" data-source-line="46" id="lnk8"><path d="M297.16,137.47 C308.41,137.47 314.16,137.47 325.55,137.47" fill="none" id="ASR-to-TTS" style="stroke:#000000;stroke-width:1;"/><polygon fill="#000000" points="331.55,137.47,322.55,133.47,326.55,137.47,322.55,141.47,331.55,137.47" style="stroke:#000000;stroke-width:1;"/><text fill="#000000" font-family="Verdana" font-size="13" lengthAdjust="spacing" textLength="38.1431" x="295.36" y="150.5369">&#1090;&#1077;&#1082;&#1089;&#1090;</text></g><!--link Tools to Executor--><g class="link" data-entity-1="ent0013" data-entity-2="ent0012" data-link-type="dependency" data-source-line="60" id="lnk15"><path d="M288.76,420.47 C299.88,420.47 305.57,420.47 316.88,420.47" fill="none" id="Tools-to-Executor" style="stroke:#000000;stroke-width:1;"/><polygon fill="#000000" points="322.88,420.47,313.88,416.47,317.88,420.47,313.88,424.47,322.88,420.47" style="stroke:#000000;stroke-width:1;"/></g><!--link Executor to Agent--><g class="link" data-entity-1="ent0012" data-entity-2="ent0014" data-link-type="dependency" data-source-line="61" id="lnk16"><path d="M454.28,420.47 C465.84,420.47 471.74,420.47 482.95,420.47" fill="none" id="Executor-to-Agent" style="stroke:#000000;stroke-width:1;"/><polygon fill="#000000" points="488.95,420.47,479.95,416.47,483.95,420.47,479.95,424.47,488.95,420.47" style="stroke:#000000;stroke-width:1;"/></g><!--link IDriver to IKinematics--><g class="link" data-entity-1="ent0018" data-entity-2="ent0019" data-link-type="dependency" data-source-line="70" id="lnk21"><path d="M281.34,561.47 C292.56,561.47 298.41,561.47 309.59,561.47" fill="none" id="IDriver-to-IKinematics" style="stroke:#000000;stroke-width:1;"/><polygon fill="#000000" points="315.59,561.47,306.59,557.47,310.59,561.47,306.59,565.47,315.59,561.47" style="stroke:#000000;stroke-width:1;"/></g><!--link IKinematics to IServo--><g class="link" data-entity-1="ent0019" data-entity-2="ent0020" data-link-type="dependency" data-source-line="71" id="lnk22"><path d="M417.56,561.47 C428.97,561.47 435.08,561.47 446.49,561.47" fill="none" id="IKinematics-to-IServo" style="stroke:#000000;stroke-width:1;"/><polygon fill="#000000" points="452.49,561.47,443.49,557.47,447.49,561.47,443.49,565.47,452.49,561.47" style="stroke:#000000;stroke-width:1;"/></g><!--link User to ASR--><g class="link" data-entity-1="ent0002" data-entity-2="ent0006" data-link-type="dependency" data-source-line="76" id="lnk23"><path d="M114.32,137.47 C131.92,137.47 145.78,137.47 164.18,137.47" fill="none" id="User-to-ASR" style="stroke:#000000;stroke-width:1;"/><polygon fill="#000000" points="170.18,137.47,161.18,133.47,165.18,137.47,161.18,141.47,170.18,137.47" style="stroke:#000000;stroke-width:1;"/><text fill="#000000" font-family="Verdana" font-size="13" lengthAdjust="spacing" textLength="54.6724" x="115.25" y="150.5369">&#1075;&#1086;&#1074;&#1086;&#1088;&#1080;&#1090;</text></g><!--reverse link User to TTS--><g class="link" data-entity-1="ent0002" data-entity-2="ent0007" data-link-type="dependency" data-source-line="77" id="lnk25"><path d="M120.36,173.47 C200.59,173.47 339.74,173.47 339.74,173.47 C339.74,173.47 339.74,171.74 339.74,169.03" fill="none" id="User-backto-TTS" style="stroke:#000000;stroke-width:1;"/><polygon fill="#000000" points="114.36,173.47,123.36,177.47,119.36,173.47,123.36,169.47,114.36,173.47" style="stroke:#000000;stroke-width:1;"/><text fill="#000000" font-family="Verdana" font-size="13" lengthAdjust="spacing" textLength="77.5493" x="151.27" y="186.5369">&#1086;&#1079;&#1074;&#1091;&#1095;&#1080;&#1074;&#1072;&#1077;&#1090;</text></g><!--link ASR to Policy--><g class="link" data-entity-1="ent0006" data-entity-2="ent0010" data-link-type="dependency" data-source-line="80" id="lnk26"><path d="M292.66,169.02 C292.66,212.01 292.66,283.47 292.66,283.47 C292.66,283.47 314.06,283.47 341.24,283.47" fill="none" id="ASR-to-Policy" style="stroke:#000000;stroke-width:1;"/><polygon fill="#000000" points="347.24,283.47,338.24,279.47,342.24,283.47,338.24,287.47,347.24,283.47" style="stroke:#000000;stroke-width:1;"/><text fill="#000000" font-family="Verdana" font-size="13" lengthAdjust="spacing" textLength="38.1431" x="253.66" y="249.5969">&#1090;&#1077;&#1082;&#1089;&#1090;</text></g><!--link Policy to TTS--><g class="link" data-entity-1="ent0010" data-entity-2="ent0007" data-link-type="dependency" data-source-line="81" id="lnk27"><path d="M400.55,259.38 C400.55,234.88 400.55,202.25 400.55,175.02" fill="none" id="Policy-to-TTS" style="stroke:#000000;stroke-width:1;"/><polygon fill="#000000" points="400.55,169.02,396.55,178.02,400.55,174.02,404.55,178.02,400.55,169.02" style="stroke:#000000;stroke-width:1;"/><text fill="#000000" font-family="Verdana" font-size="13" lengthAdjust="spacing" textLength="38.1431" x="361.55" y="210.2669">&#1090;&#1077;&#1082;&#1089;&#1090;</text></g><!--link Policy to Agent--><g class="link" data-entity-1="ent0010" data-entity-2="ent0014" data-link-type="dependency" data-source-line="84" id="lnk28"><path d="M453.8,283.47 C494.45,283.47 543.55,283.47 543.55,283.47 C543.55,283.47 543.55,351.52 543.55,390.56" fill="none" id="Policy-to-Agent" style="stroke:#000000;stroke-width:1;"/><polygon fill="#000000" points="543.55,396.56,547.55,387.56,543.55,391.56,539.55,387.56,543.55,396.56" style="stroke:#000000;stroke-width:1;"/><text fill="#000000" font-family="Verdana" font-size="13" lengthAdjust="spacing" textLength="71.7729" x="471.55" y="291.2069">&#1091;&#1087;&#1088;&#1072;&#1074;&#1083;&#1103;&#1077;&#1090;</text></g><!--link Agent to LLM_API--><g class="link" data-entity-1="ent0014" data-entity-2="ent0003" data-link-type="dependency" data-source-line="87" id="lnk29"><path d="M598.24,420.47 C616.85,420.47 631.21,420.47 648.15,420.47" fill="none" id="Agent-to-LLM_API" style="stroke:#000000;stroke-width:1;"/><polygon fill="#000000" points="654.15,420.47,645.15,416.47,649.15,420.47,645.15,424.47,654.15,420.47" style="stroke:#000000;stroke-width:1;"/><text fill="#000000" font-family="Verdana" font-size="13" lengthAdjust="spacing" textLength="33.4966" x="618.44" y="433.5369">HTTP</text></g><!--link Tools to IDriver--><g class="link" data-entity-1="ent0013" data-entity-2="ent0018" data-link-type="dependency" data-source-line="90" id="lnk30"><path d="M229.55,443.61 C229.55,468.5 229.55,501.69 229.55,527.82" fill="none" id="Tools-to-IDriver" style="stroke:#000000;stroke-width:1;"/><polygon fill="#000000" points="229.55,533.82,233.55,524.82,229.55,528.82,225.55,524.82,229.55,533.82" style="stroke:#000000;stroke-width:1;"/></g><?plantuml-src XLNTJXD15BxVfpZM2-2Y4H0Y9KXIMZOG8I6qUgF63DkXtR3TQNONAXeIX0Grce1uvmN-N7XhgJHMiFKLPb_19_7Cp7P_MgeqeMVcdFETCzzyPth3gz0gXPf5J5lJt2tJhX67LC5WrHgpgUqLl5sBmdRLcenvYU4nHtb8dRgiIcFE6Z6sI9agjqCDB-QpJ9jwkpKApF4gBEPmAwJ4wgPTXarYkLJJHk2k-0F-bJTvop_W3V1Vy2lUzT_nfl8DrfoRss6cGUVduRa6i82RPOTjswKSivW3DnTlwvDwNdYOKw9Ei9iPpsNrZBQdNOTNPQMXSBgkPt9J_N3wGcvyCZy4pc3EyEvczEd5J3_Sp4JkpipK4BWASKfrCXnIdnQVViY5lFWa8SFx7W3L6Oh0V4PXOboaXFTooZjuBw_mVvkty6xyG_yrBhfe7V1sS4DIA93Y7tcNN_bl-G_yRl86HhJ4EWN4XVikTRGIySW6SIcaLbPM8RksB5reFq4xLlKCHT2H81s4EHQQQCkABVuB9QAg1lnWtKyOUeuzOKTOk-tlg_gOtF7Vy9_0tul6HDFIqHLR9_mxedNyWnIU7maOWNGw3G-4i8I5En7-gKowW5l81mAgnQWKuLWAad84U9Wjh3-oHyCiRAVbl-JjiSVYiEXKKSLYGKQ5WCauT6io41CWxPZbYfUU5xim2vA8Iq48Hkn5tQ-YZ0UQFqFSIqJ6QBGQ_X4IT2owZeaUsy5B4EcozXgpJ6CtYPr3JSCe_yo_8Drd_0C_6HiezOrV2EvZvFA6g1IR1wnKs38jQ_4fDRPHDR9URw7ywso3UKN6B5SH8QomnsmPrQk859QYI8P492NWUel8hH8JXriAXk5_1ppXvpqUaN_998fLQc_VF-GNeUu2Ylk63A81XDIoF6VUCNUe8yTWMTc9j86aU_YqLebd6gxAYTR_pYjGPuUf56acesLuhtv8L0nS1SIAHK4IJj8PVpU6F0N1w8h787OXgF1PGCd8uKHosoXieVIqHJT5W0p7Y2x2DV45mY6HFECFHbHIZUwVerCr1ggG71xyoR4HHQawEJx1NYzaOBn2T8afmEKSAF2-PAahaNx8Vqk5DF74nyacPRQ0mVUkrw9C2ya87aF4MIeMrwx93BMgqWFj1pq4T_WN?></g></svg>