<?plantuml 1.2026.2beta3?><svg xmlns="http://www.w3.org/2000/svg" xmlns:xlink="http://www.w3.org/1999/xlink" contentStyleType="text/css" data-diagram-type="DESCRIPTION" height="832px" preserveAspectRatio="none" style="width:576px;height:832px;background:#FFFFFF;" version="1.1" viewBox="0 0 576 832" width="576px" zoomAndPan="magnify"><defs/><g><!--cluster ???????????????? ????????? ?????--><g class="cluster" data-qualified-name="................ ......... ....." data-source-line="39" id="ent0004"><rect fill="#FFFFFF" height="721.77" rx="2.5" ry="2.5" style="stroke:#000000;stroke-width:1;" width="457" x="12" y="104.29"/><text fill="#000000" font-family="Verdana" font-size="14" font-weight="bold" lengthAdjust="spacing" textLength="294.6973" x="93.1514" y="119.2851">&#1056;&#1086;&#1073;&#1086;&#1090;&#1080;&#1079;&#1080;&#1088;&#1086;&#1074;&#1072;&#1085;&#1085;&#1099;&#1081; &#1043;&#1086;&#1083;&#1086;&#1089;&#1086;&#1074;&#1086;&#1081; &#1040;&#1075;&#1077;&#1085;&#1090;</text></g><!--cluster ???? / ????? (voice)--><g class="cluster" data-qualified-name="................ ......... .......... . ..... .voice." data-source-line="42" id="ent0005"><rect fill="#E3F2FD" height="129.6" rx="2.5" ry="2.5" style="stroke:#90CAF9;stroke-width:1;" width="331" x="75" y="147.29"/><text fill="#000000" font-family="Verdana" font-size="14" font-style="italic" lengthAdjust="spacing" textLength="54.1816" x="213.4092" y="162.2851">&#171;voice&#187;</text><text fill="#000000" font-family="Verdana" font-size="14" font-weight="bold" lengthAdjust="spacing" textLength="167.4395" x="156.7803" y="178.582">&#1042;&#1074;&#1086;&#1076; / &#1042;&#1099;&#1074;&#1086;&#1076; (voice)</text></g><!--cluster ???????????--><g class="cluster" data-qualified-name="................ ......... ................." data-source-line="48" id="ent0008"><rect fill="#FFF9C4" height="113.3" rx="2.5" ry="2.5" style="stroke:#FBC02D;stroke-width:1;" width="138" x="201" y="300.89"/><text fill="#000000" font-family="Verdana" font-size="14" font-style="italic" lengthAdjust="spacing" textLength="56.834" x="241.583" y="315.8851">&#171;mode&#187;</text><text fill="#000000" font-family="Verdana" font-size="14" font-weight="bold" lengthAdjust="spacing" textLength="104.5557" x="217.7222" y="332.182">&#1054;&#1088;&#1082;&#1077;&#1089;&#1090;&#1088;&#1072;&#1090;&#1086;&#1088;</text></g><!--cluster ???? ??????--><g class="cluster" data-qualified-name="................ ......... .......... ......" data-source-line="53" id="ent0010"><rect fill="#E8F5E9" height="219.59" rx="2.5" ry="2.5" style="stroke:#81C784;stroke-width:1;" width="307" x="138" y="438.19"/><text fill="#000000" font-family="Verdana" font-size="14" font-style="italic" lengthAdjust="spacing" textLength="47.7627" x="267.6187" y="453.1851">&#171;core&#187;</text><text fill="#000000" font-family="Verdana" font-size="14" font-weight="bold" lengthAdjust="spacing" textLength="101.4795" x="240.7603" y="469.482">&#1071;&#1076;&#1088;&#1086; &#1040;&#1075;&#1077;&#1085;&#1090;&#1072;</text></g><!--cluster ?????????? ????????????--><g class="cluster" data-qualified-name="................ ......... ................ ............" data-source-line="60" id="ent0014"><rect fill="#F5F5F5" height="120.28" rx="2.5" ry="2.5" style="stroke:#BDBDBD;stroke-width:1;" width="409" x="36" y="681.78"/><text fill="#000000" font-family="Verdana" font-size="14" font-style="italic" lengthAdjust="spacing" textLength="83.624" x="198.688" y="696.7751">&#171;hardware&#187;</text><text fill="#000000" font-family="Verdana" font-size="14" font-weight="bold" lengthAdjust="spacing" textLength="218.1895" x="131.4053" y="713.072">&#1040;&#1073;&#1089;&#1090;&#1088;&#1072;&#1082;&#1094;&#1080;&#1103; &#1054;&#1073;&#1086;&#1088;&#1091;&#1076;&#1086;&#1074;&#1072;&#1085;&#1080;&#1103;</text></g><!--entity ASR--><g class="entity" data-qualified-name="................ ......... .......... . ..... .voice..ASR" data-source-line="43" id="ent0006"><rect fill="#FFFFFF" height="62.5938" rx="2.5" ry="2.5" style="stroke:#000000;stroke-width:1;" width="126.3447" x="90.83" y="198.29"/><rect fill="#FFFFFF" height="10" style="stroke:#000000;stroke-width:1;" width="15" x="197.1747" y="203.29"/><rect fill="#FFFFFF" height="2" style="stroke:#000000;stroke-width:1;" width="4" x="195.1747" y="205.29"/><rect fill="#FFFFFF" height="2" style="stroke:#000000;stroke-width:1;" width="4" x="195.1747" y="209.29"/><text fill="#000000" font-family="Verdana" font-size="14" lengthAdjust="spacing" textLength="28.1914" x="105.83" y="231.2851">ASR</text><text fill="#000000" font-family="Verdana" font-size="14" lengthAdjust="spacing" textLength="86.3447" x="105.83" y="247.582">(&#1042;&#1074;&#1086;&#1076; &#1088;&#1077;&#1095;&#1080;)</text></g><!--entity TTS--><g class="entity" data-qualified-name="................ ......... .......... . ..... .voice..TTS" data-source-line="44" id="ent0007"><rect fill="#FFFFFF" height="62.5938" rx="2.5" ry="2.5" style="stroke:#000000;stroke-width:1;" width="137.3984" x="252.3" y="198.29"/><rect fill="#FFFFFF" height="10" style="stroke:#000000;stroke-width:1;" width="15" x="369.6984" y="203.29"/><rect fill="#FFFFFF" height="2" style="stroke:#000000;stroke-width:1;" width="4" x="367.6984" y="205.29"/><rect fill="#FFFFFF" height="2" style="stroke:#000000;stroke-width:1;" width="4" x="367.6984" y="209.29"/><text fill="#000000" font-family="Verdana" font-size="14" lengthAdjust="spacing" textLength="25.9902" x="267.3" y="231.2851">TTS</text><text fill="#000000" font-family="Verdana" font-size="14" lengthAdjust="spacing" textLength="97.3984" x="267.3" y="247.582">(&#1042;&#1099;&#1074;&#1086;&#1076; &#1088;&#1077;&#1095;&#1080;)</text></g><!--entity Mode--><g class="entity" data-qualified-name="................ ......... ..................Mode" data-source-line="49" id="ent0009"><rect fill="#FFFFFF" height="46.2969" rx="2.5" ry="2.5" style="stroke:#000000;stroke-width:1;" width="105.8232" x="217.09" y="351.89"/><rect fill="#FFFFFF" height="10" style="stroke:#000000;stroke-width:1;" width="15" x="302.9132" y="356.89"/><rect fill="#FFFFFF" height="2" style="stroke:#000000;stroke-width:1;" width="4" x="300.9132" y="358.89"/><rect fill="#FFFFFF" height="2" style="stroke:#000000;stroke-width:1;" width="4" x="300.9132" y="362.89"/><text fill="#000000" font-family="Verdana" font-size="14" lengthAdjust="spacing" textLength="65.8232" x="232.09" y="384.8851">LLMMode</text></g><!--entity Agent--><g class="entity" data-qualified-name="................ ......... .......... .......Agent" data-source-line="54" id="ent0011"><rect fill="#FFFFFF" height="46.2969" rx="2.5" ry="2.5" style="stroke:#000000;stroke-width:1;" width="109.1182" x="319.44" y="489.19"/><rect fill="#FFFFFF" height="10" style="stroke:#000000;stroke-width:1;" width="15" x="408.5582" y="494.19"/><rect fill="#FFFFFF" height="2" style="stroke:#000000;stroke-width:1;" width="4" x="406.5582" y="496.19"/><rect fill="#FFFFFF" height="2" style="stroke:#000000;stroke-width:1;" width="4" x="406.5582" y="500.19"/><text fill="#000000" font-family="Verdana" font-size="14" lengthAdjust="spacing" textLength="69.1182" x="334.44" y="522.1851">LLMAgent</text></g><!--entity Executor--><g class="entity" data-qualified-name="................ ......... .......... .......Executor" data-source-line="55" id="ent0012"><rect fill="#FFFFFF" height="46.2969" rx="2.5" ry="2.5" style="stroke:#000000;stroke-width:1;" width="130.7881" x="153.61" y="489.19"/><rect fill="#FFFFFF" height="10" style="stroke:#000000;stroke-width:1;" width="15" x="264.3981" y="494.19"/><rect fill="#FFFFFF" height="2" style="stroke:#000000;stroke-width:1;" width="4" x="262.3981" y="496.19"/><rect fill="#FFFFFF" height="2" style="stroke:#000000;stroke-width:1;" width="4" x="262.3981" y="500.19"/><text fill="#000000" font-family="Verdana" font-size="14" lengthAdjust="spacing" textLength="90.7881" x="168.61" y="522.1851">SkillExecutor</text></g><!--entity Tools--><g class="entity" data-qualified-name="................ ......... .......... .......Tools" data-source-line="56" id="ent0013"><rect fill="#FFFFFF" height="46.2969" rx="2.5" ry="2.5" style="stroke:#000000;stroke-width:1;" width="118.1006" x="181.95" y="595.48"/><rect fill="#FFFFFF" height="10" style="stroke:#000000;stroke-width:1;" width="15" x="280.0506" y="600.48"/><rect fill="#FFFFFF" height="2" style="stroke:#000000;stroke-width:1;" width="4" x="278.0506" y="602.48"/><rect fill="#FFFFFF" height="2" style="stroke:#000000;stroke-width:1;" width="4" x="278.0506" y="606.48"/><text fill="#000000" font-family="Verdana" font-size="14" lengthAdjust="spacing" textLength="78.1006" x="196.95" y="628.4751">RobotTools</text></g><!--entity IDriver--><g class="entity" data-qualified-name="................ ......... ................ .............IDriver" data-source-line="61" id="ent0015"><rect fill="#FFFFFF" height="53.2813" rx="2.5" ry="2.5" style="stroke:#000000;stroke-width:1;" width="103.1738" x="52.41" y="732.78"/><rect fill="#FFFFFF" height="10" style="stroke:#000000;stroke-width:1;" width="15" x="135.5838" y="737.78"/><rect fill="#FFFFFF" height="2" style="stroke:#000000;stroke-width:1;" width="4" x="133.5838" y="739.78"/><rect fill="#FFFFFF" height="2" style="stroke:#000000;stroke-width:1;" width="4" x="133.5838" y="743.78"/><text fill="#000000" font-family="Verdana" font-size="10" font-style="italic" lengthAdjust="spacing" textLength="59.7314" x="69.1312" y="762.0622">&#171;hardware&#187;</text><text fill="#000000" font-family="Verdana" font-size="10" lengthAdjust="spacing" textLength="63.1738" x="67.41" y="773.7029">IRobotDriver</text></g><!--entity IKinematics--><g class="entity" data-qualified-name="................ ......... ................ .............IKinematics" data-source-line="62" id="ent0016"><rect fill="#FFFFFF" height="53.2813" rx="2.5" ry="2.5" style="stroke:#000000;stroke-width:1;" width="101.7314" x="190.13" y="732.78"/><rect fill="#FFFFFF" height="10" style="stroke:#000000;stroke-width:1;" width="15" x="271.8614" y="737.78"/><rect fill="#FFFFFF" height="2" style="stroke:#000000;stroke-width:1;" width="4" x="269.8614" y="739.78"/><rect fill="#FFFFFF" height="2" style="stroke:#000000;stroke-width:1;" width="4" x="269.8614" y="743.78"/><text fill="#000000" font-family="Verdana" font-size="10" font-style="italic" lengthAdjust="spacing" textLength="59.7314" x="206.13" y="762.0622">&#171;hardware&#187;</text><text fill="#000000" font-family="Verdana" font-size="10" lengthAdjust="spacing" textLength="58.0518" x="206.9698" y="773.7029">IKinematics</text></g><!--entity IServo--><g class="entity" data-qualified-name="................ ......... ................ .............IServo" data-source-line="63" id="ent0017"><rect fill="#FFFFFF" height="53.2813" rx="2.5" ry="2.5" style="stroke:#000000;stroke-width:1;" width="101.7314" x="327.13" y="732.78"/><rect fill="#FFFFFF" height="10" style="stroke:#000000;stroke-width:1;" width="15" x="408.8614" y="737.78"/><rect fill="#FFFFFF" height="2" style="stroke:#000000;stroke-width:1;" width="4" x="406.8614" y="739.78"/><rect fill="#FFFFFF" height="2" style="stroke:#000000;stroke-width:1;" width="4" x="406.8614" y="743.78"/><text fill="#000000" font-family="Verdana" font-size="10" font-style="italic" lengthAdjust="spacing" textLength="59.7314" x="343.13" y="762.0622">&#171;hardware&#187;</text><text fill="#000000" font-family="Verdana" font-size="10" lengthAdjust="spacing" textLength="31.5967" x="357.1974" y="773.7029">IServo</text></g><!--entity User--><g class="entity" data-qualified-name="User" data-source-line="35" id="ent0002"><ellipse cx="236.9998" cy="27" fill="#FFFFFF" rx="16" ry="16" style="stroke:#000000;stroke-width:1;"/><path d="M236.9998,47 C240.9998,47 243.9998,47 247.9998,43 C255.9998,43 263.9998,51 263.9998,59 L263.9998,63 C263.9998,67 259.9998,71 255.9998,71 L217.9998,71 C213.9998,71 209.9998,67 209.9998,63 L209.9998,59 C209.9998,51 217.9998,43 225.9998,43 C229.9998,47 232.9998,47 236.9998,47" fill="#FFFFFF" style="stroke:#000000;stroke-width:1;"/><text fill="#000000" font-family="Verdana" font-size="14" lengthAdjust="spacing" textLength="103.0996" x="185.45" y="84.9951">&#1055;&#1086;&#1083;&#1100;&#1079;&#1086;&#1074;&#1072;&#1090;&#1077;&#1083;&#1100;</text></g><!--entity LLM_API--><g class="entity" data-qualified-name="LLM_API" data-source-line="36" id="ent0003"><path d="M484.86,605.98 C484.86,595.98 521.9987,595.98 521.9987,595.98 C521.9987,595.98 559.1373,595.98 559.1373,605.98 L559.1373,631.2769 C559.1373,641.2769 521.9987,641.2769 521.9987,641.2769 C521.9987,641.2769 484.86,641.2769 484.86,631.2769 L484.86,605.98" fill="#FFFFFF" style="stroke:#000000;stroke-width:1;"/><path d="M484.86,605.98 C484.86,615.98 521.9987,615.98 521.9987,615.98 C521.9987,615.98 559.1373,615.98 559.1373,605.98" fill="none" style="stroke:#000000;stroke-width:1;"/><text fill="#000000" font-family="Verdana" font-size="14" lengthAdjust="spacing" textLength="54.2773" x="494.86" y="632.9751">LLM API</text></g><!--link User to ASR--><g class="link" data-entity-1="ent0002" data-entity-2="ent0006" data-link-type="dependency" data-source-line="68" id="lnk18"><path d="M201.31,88.75 C201.31,121.53 201.31,161.5 201.31,191.89" fill="none" id="User-to-ASR" style="stroke:#000000;stroke-width:1;"/><polygon fill="#000000" points="201.31,197.89,205.31,188.89,201.31,192.89,197.31,188.89,201.31,197.89" style="stroke:#000000;stroke-width:1;"/></g><!--reverse link User to TTS--><g class="link" data-entity-1="ent0002" data-entity-2="ent0007" data-link-type="dependency" data-source-line="69" id="lnk20"><path d="M270.43,94.75 C270.43,127.53 270.43,167.5 270.43,197.89" fill="none" id="User-backto-TTS" style="stroke:#000000;stroke-width:1;"/><polygon fill="#000000" points="270.43,88.75,266.43,97.75,270.43,93.75,274.43,97.75,270.43,88.75" style="stroke:#000000;stroke-width:1;"/></g><!--link ASR to Mode--><g class="link" data-entity-1="ent0006" data-entity-2="ent0009" data-link-type="dependency" data-source-line="72" id="lnk21"><path d="M217.61,230.06 C227.62,230.06 234.74,230.06 234.74,230.06 C234.74,230.06 234.74,304.34 234.74,345.42" fill="none" id="ASR-to-Mode" style="stroke:#000000;stroke-width:1;stroke-dasharray:7,7;"/><polygon fill="#000000" points="234.74,351.42,238.74,342.42,234.74,346.42,230.74,342.42,234.74,351.42" style="stroke:#000000;stroke-width:1;"/></g><!--reverse link TTS to Mode--><g class="link" data-entity-1="ent0007" data-entity-2="ent0009" data-link-type="dependency" data-source-line="73" id="lnk23"><path d="M287.61,267.15 C287.61,294.39 287.61,327.11 287.61,351.65" fill="none" id="TTS-backto-Mode" style="stroke:#000000;stroke-width:1;stroke-dasharray:7,7;"/><polygon fill="#000000" points="287.61,261.15,283.61,270.15,287.61,266.15,291.61,270.15,287.61,261.15" style="stroke:#000000;stroke-width:1;"/></g><!--link Mode to Agent--><g class="link" data-entity-1="ent0009" data-entity-2="ent0011" data-link-type="dependency" data-source-line="74" id="lnk24"><path d="M309.75,398.45 C309.75,437.83 309.75,513.06 309.75,513.06 C309.75,513.06 307.39,513.06 312.95,513.06" fill="none" id="Mode-to-Agent" style="stroke:#000000;stroke-width:1;"/><polygon fill="#000000" points="318.95,513.06,309.95,509.06,313.95,513.06,309.95,517.06,318.95,513.06" style="stroke:#000000;stroke-width:1;"/></g><!--link Mode to Executor--><g class="link" data-entity-1="ent0009" data-entity-2="ent0012" data-link-type="dependency" data-source-line="75" id="lnk25"><path d="M250.74,398.64 C250.74,423.94 250.74,457.86 250.74,483.04" fill="none" id="Mode-to-Executor" style="stroke:#000000;stroke-width:1;"/><polygon fill="#000000" points="250.74,489.04,254.74,480.04,250.74,484.04,246.74,480.04,250.74,489.04" style="stroke:#000000;stroke-width:1;"/></g><!--link Agent to LLM_API--><g class="link" data-entity-1="ent0011" data-entity-2="ent0003" data-link-type="dependency" data-source-line="78" id="lnk26"><path d="M428.69,513.06 C470.85,513.06 522,513.06 522,513.06 C522,513.06 522,558.67 522,589.72" fill="none" id="Agent-to-LLM_API" style="stroke:#000000;stroke-width:1;stroke-dasharray:7,7;"/><polygon fill="#000000" points="522,595.72,526,586.72,522,590.72,518,586.72,522,595.72" style="stroke:#000000;stroke-width:1;"/></g><!--link Agent to Tools--><g class="link" data-entity-1="ent0011" data-entity-2="ent0013" data-link-type="dependency" data-source-line="79" id="lnk27"><path d="M323.29,535.76 C323.29,567.17 323.29,619.06 323.29,619.06 C323.29,619.06 319.34,619.06 306.37,619.06" fill="none" id="Agent-to-Tools" style="stroke:#000000;stroke-width:1;stroke-dasharray:7,7;"/><polygon fill="#000000" points="300.37,619.06,309.37,623.06,305.37,619.06,309.37,615.06,300.37,619.06" style="stroke:#000000;stroke-width:1;"/></g><!--link Executor to Tools--><g class="link" data-entity-1="ent0012" data-entity-2="ent0013" data-link-type="dependency" data-source-line="80" id="lnk28"><path d="M233.17,535.92 C233.17,553.54 233.17,571.51 233.17,589.11" fill="none" id="Executor-to-Tools" style="stroke:#000000;stroke-width:1;stroke-dasharray:7,7;"/><polygon fill="#000000" points="233.17,595.11,237.17,586.11,233.17,590.11,229.17,586.11,233.17,595.11" style="stroke:#000000;stroke-width:1;"/></g><!--link Tools to IDriver--><g class="link" data-entity-1="ent0013" data-entity-2="ent0015" data-link-type="dependency" data-source-line="83" id="lnk29"><path d="M186.04,641.98 C186.04,682.15 186.04,760.06 186.04,760.06 C186.04,760.06 178.24,760.06 161.96,760.06" fill="none" id="Tools-to-IDriver" style="stroke:#000000;stroke-width:1;stroke-dasharray:7,7;"/><polygon fill="#000000" points="155.96,760.06,164.96,764.06,160.96,760.06,164.96,756.06,155.96,760.06" style="stroke:#000000;stroke-width:1;"/></g><!--link Tools to IKinematics--><g class="link" data-entity-1="ent0013" data-entity-2="ent0016" data-link-type="dependency" data-source-line="84" id="lnk30"><path d="M241,642.2 C241,667.09 241,700.28 241,726.41" fill="none" id="Tools-to-IKinematics" style="stroke:#000000;stroke-width:1;stroke-dasharray:7,7;"/><polygon fill="#000000" points="241,732.41,245,723.41,241,727.41,237,723.41,241,732.41" style="stroke:#000000;stroke-width:1;"/></g><!--link Tools to IServo--><g class="link" data-entity-1="ent0013" data-entity-2="ent0017" data-link-type="dependency" data-source-line="85" id="lnk31"><path d="M295.96,641.98 C295.96,682.15 295.96,760.06 295.96,760.06 C295.96,760.06 304.29,760.06 320.97,760.06" fill="none" id="Tools-to-IServo" style="stroke:#000000;stroke-width:1;stroke-dasharray:7,7;"/><polygon fill="#000000" points="326.97,760.06,317.97,756.06,321.97,760.06,317.97,764.06,326.97,760.06" style="stroke:#000000;stroke-width:1;"/></g><?plantuml-src VLHVJnD147-_Jp7M1-2X5H0YJR19QRb8XCHGz4MDEQvhU-5wsznTGJGa5HB_H1CGtr5UV1Kg3GLiFyFUDt9czzhUNQbjqixExFncTkOtSyUliXg3kcrOZgPvMvPJDroZ1YQlrRd37B_axzeC6ZLxDc8rJ9-xocBiC8_NMCHODymjeyAKsMMc7x7PbiFytJe3xlfL7Z5uLQFCTood0gyDssEQDW4FwGFYbsY9Th0lpY1uBsv4B_WcMies6dDnSPjR9ilbu9q6i8JAYiiRJhd0RUx2tUNx-gnU90jtoymDjTdfGbxFQdlQRNWrNXuBf-jwjZ2NXDEN2jEpnJ5m9dV7PxUWpozdat0BCuK72tDZuAg6MzunnaFgy_HDGYuLwHk77FHx15JdI0BhBOEPQN8PzELOTB4ld_2t8zhOc-0W-8o77ahxeXDsI185KkA7w8cRuAkunF-MECCRRJgdmF3WgSTShMpungRXCKYjhgv1_icADA7y2kL8r1CaGLU2T17ca3ZHaH7RuYzIH4KDwuDnV-BLSym9CyBOdQ2fugDpD_WYha1yfyGeQMdeaUf8_46qRh2VmlTZ0IOWdKx3Co8MIQWPuXzBfmkuX_L0G7MOb2ISIa6SZW3FywNr5yxam0lJQGSVHMVg9JqMZUhMnaP9tXe0nk-X6U_j3LDRGuwEP7Q2JjVeXhL1YIhU2vgKKeJH60ihJEuIc8GuSW7fEeByMrnG7IE54cS47E6s0ivNa4_gQIGfVMdBiktbDyni83EaiNzGzdM-oVqDpcrFFPQaU5AFGdwE97OapllF5TV11spt8H96zhyP78YBGU_HG0adY0x38O3KYioZw5hRp9LKN55op6t4wJ6kjvhXMwQdV8Rd__kLcBlDbOiKaxVtOfCtPfXWCPq3SNhBFD240Hg9OSWUI3VgU99p5zspifUoUeGUpbTJ1OEGA24Y8a4carEKaVfCeuvdugQY8svpXqBApiTKWtv7TyabHkrWoaXtpEDAFg6bEeYZZhk54kj0IBx-moIwJAI_AOOQnPn-i8Xg6FPKj893sWkuHY3S50ccK1t3OD8RClGAn0hvaDGEEvwqoCR-0m00?></g></svg>